<?xml version="1.0" encoding="UTF-8"?>
<!DOCTYPE svg PUBLIC "-//W3C//DTD SVG 1.1//EN" "http://www.w3.org/Graphics/SVG/1.1/DTD/svg11.dtd">
<!-- Creator: CorelDRAW 2018 (64-Bit) -->
<svg xmlns="http://www.w3.org/2000/svg" xml:space="preserve" width="80px" height="80px" version="1.1" style="shape-rendering:geometricPrecision; text-rendering:geometricPrecision; image-rendering:optimizeQuality; fill-rule:evenodd; clip-rule:evenodd"
viewBox="0 0 80 80"
 xmlns:xlink="http://www.w3.org/1999/xlink">
 <defs>
  <style type="text/css">
   <![CDATA[
    .fil0 {fill:none}
    .fil1 {fill:#113A6B}
   ]]>
  </style>
 </defs>
 <g id="Слой_x0020_1">
  <metadata id="CorelCorpID_0Corel-Layer"/>
  <rect class="fil0" width="80" height="80"/>
  <path class="fil1" d="M8.86 34.78l0 -9.91c0,-5.21 0.43,-10.32 6.93,-10.32 1.46,0 2.55,0.29 3.83,0.85l0 5.96c-0.8,-0.43 -1.46,-0.74 -2.37,-0.74 -2.92,0 -2.68,2.86 -2.68,4.93l0 9.23 4.75 0 0 4.5 -4.75 0 0 26.17 -5.71 0 0 -26.17 -2.86 0 0 -4.5 2.86 0zm24.57 -4.9l0 4.93 4.92 0 0 4.53 -4.92 0 0 4.83 -4.52 1.37 0 -6.2 -4.94 0 0 -4.53 4.94 0 0 -4.93 4.52 0zm40.57 18.02c-34.53,-3.69 -49.25,6.27 -54.79,12.13l0 -4.64c10.31,-6.55 28.43,-13.54 54.59,-7.54l0.2 0.05z"/>
 </g>
</svg>
